<?xml version="1.0" encoding="UTF-8"?>
<svg width="13px" height="13px" viewBox="0 0 13 13" version="1.1" xmlns="http://www.w3.org/2000/svg" xmlns:xlink="http://www.w3.org/1999/xlink">
    <!-- Generator: Sketch 47.1 (45422) - http://www.bohemiancoding.com/sketch -->
    <title>close</title>
    <desc>Created with Sketch.</desc>
    <defs></defs>
    <g id="Page-1" stroke="none" stroke-width="1" fill="none" fill-rule="evenodd">
        <g id="assets" transform="translate(-84.000000, -79.000000)">
            <g id="close" transform="translate(78.000000, 74.000000)">
                <rect id="Rectangle" x="0" y="0" width="24" height="24"></rect>
                <path d="M12.363961,9.94974747 L8.12132034,5.70710678 C7.73079605,5.31658249 7.09763107,5.31658249 6.70710678,5.70710678 L6.70710678,5.70710678 L6.70710678,5.70710678 C6.31658249,6.09763107 6.31658249,6.73079605 6.70710678,7.12132034 L6.70710678,7.12132034 L10.9497475,11.363961 L6.70710678,15.6066017 C6.31658249,15.997126 6.31658249,16.630291 6.70710678,17.0208153 L6.70710678,17.0208153 L6.70710678,17.0208153 C7.09763107,17.4113396 7.73079605,17.4113396 8.12132034,17.0208153 L8.12132034,17.0208153 L12.363961,12.7781746 L16.6066017,17.0208153 C16.997126,17.4113396 17.630291,17.4113396 18.0208153,17.0208153 C18.4113396,16.630291 18.4113396,15.997126 18.0208153,15.6066017 L13.7781746,11.363961 L18.0208153,7.12132034 C18.4113396,6.73079605 18.4113396,6.09763107 18.0208153,5.70710678 C17.630291,5.31658249 16.997126,5.31658249 16.6066017,5.70710678 L12.363961,9.94974747 Z" id="Combined-Shape" fill="#000000"></path>
            </g>
        </g>
    </g>
</svg>