<?xml version="1.0" encoding="UTF-8"?>
<svg width="10px" height="10px" viewBox="0 0 10 10" version="1.1" xmlns="http://www.w3.org/2000/svg" xmlns:xlink="http://www.w3.org/1999/xlink">
    <!-- Generator: Sketch 47.1 (45422) - http://www.bohemiancoding.com/sketch -->
    <title>close</title>
    <desc>Created with Sketch.</desc>
    <defs></defs>
    <g id="Page-1" stroke="none" stroke-width="1" fill="none" fill-rule="evenodd">
        <g id="Новая-встреча" transform="translate(-325.000000, -306.000000)">
            <g id="человек3" transform="translate(204.000000, 299.000000)">
                <g id="close" transform="translate(118.000000, 4.000000)">
                    <rect id="Rectangle" x="0" y="0" width="16" height="16"></rect>
                    <path d="M8.02081528,6.62132034 L5.19238816,3.79289322 C4.80186386,3.40236893 4.16869888,3.40236893 3.77817459,3.79289322 L3.77817459,3.79289322 L3.77817459,3.79289322 C3.3876503,4.18341751 3.3876503,4.81658249 3.77817459,5.20710678 L3.77817459,5.20710678 L6.60660172,8.03553391 L3.77817459,10.863961 C3.3876503,11.2544853 3.3876503,11.8876503 3.77817459,12.2781746 L3.77817459,12.2781746 L3.77817459,12.2781746 C4.16869888,12.6686989 4.80186386,12.6686989 5.19238816,12.2781746 L5.19238816,12.2781746 L8.02081528,9.44974747 L10.8492424,12.2781746 C11.2397667,12.6686989 11.8729317,12.6686989 12.263456,12.2781746 C12.6539803,11.8876503 12.6539803,11.2544853 12.263456,10.863961 L9.43502884,8.03553391 L12.263456,5.20710678 C12.6539803,4.81658249 12.6539803,4.18341751 12.263456,3.79289322 C11.8729317,3.40236893 11.2397667,3.40236893 10.8492424,3.79289322 L8.02081528,6.62132034 Z" id="Combined-Shape" fill="#AFB4B8"></path>
                </g>
            </g>
        </g>
    </g>
</svg>